<svg width="36" height="41" viewBox="0 0 36 41" fill="none" xmlns="http://www.w3.org/2000/svg">
<g clip-path="url(#clip0_7_61)">
<path d="M35.909 38.0233L29.6751 18.1481C29.2264 16.8504 28.2518 16.0422 27.1311 16.0422C26.0104 16.0422 25.0358 16.8503 24.5704 18.2004L18.3532 38.0233C18.0611 38.9503 18.4847 39.9699 19.3007 40.3003C20.1084 40.6307 21.0079 40.1482 21.3001 39.2212L22.5919 35.1045H31.6703L32.9621 39.2212C33.1896 39.9509 33.7927 40.4049 34.4355 40.4049C34.6108 40.4049 34.7882 40.3716 34.9615 40.3003C35.7754 39.9723 36.199 38.9503 35.909 38.0233ZM23.7105 31.5392L27.1311 20.639L30.5517 31.5392H23.7105ZM18.3845 10.6421C13.6721 19.1203 9.40216 24.2661 4.22853 27.6864C3.98226 27.8504 3.71304 27.9288 3.44591 27.9288C2.90538 27.9288 2.37946 27.6103 2.09146 27.0399C1.65736 26.1914 1.91197 25.1004 2.65912 24.606C7.04804 21.7039 10.6356 17.5515 14.6614 10.6444H1.56554C0.701524 10.6444 0.000297546 9.84579 0.000297546 8.86178C0.000297546 7.87776 0.701524 7.07914 1.56554 7.07914H9.39173V2.37776C9.39173 1.39374 10.093 0.595123 10.957 0.595123C11.821 0.595123 12.5222 1.39374 12.5222 2.37776V7.07914H20.3484C21.2124 7.07914 21.9136 7.87776 21.9136 8.86178C21.9136 9.84579 21.2124 10.6444 20.3484 10.6444L18.3845 10.6421ZM18.4659 27.9265C18.1988 27.9265 17.9296 27.8504 17.6812 27.684C16.3247 26.7856 15.0078 25.7921 13.7702 24.7344C13.0794 24.1425 12.9417 23.023 13.4613 22.2363C13.9789 21.4543 14.9556 21.2903 15.6548 21.8845C16.7922 22.859 18.0047 23.7741 19.2569 24.6036C20.004 25.098 20.2566 26.189 19.8225 27.0399C19.5303 27.608 19.0065 27.9265 18.4659 27.9265Z" fill="black"/>
</g>
<defs>
<clipPath id="clip0_7_61">
<rect width="36" height="41" fill="white"/>
</clipPath>
</defs>
</svg>
