<?xml version="1.0" encoding="utf-8"?>
<!-- Svg Vector Icons : http://www.onlinewebfonts.com/icon -->
<!DOCTYPE svg PUBLIC "-//W3C//DTD SVG 1.1//EN" "http://www.w3.org/Graphics/SVG/1.1/DTD/svg11.dtd">
<svg version="1.1" xmlns="http://www.w3.org/2000/svg" xmlns:xlink="http://www.w3.org/1999/xlink" x="0px" y="0px" stroke="currentColor" fill="currentColor" viewBox="0 0 256 256" enable-background="new 0 0 256 256" xml:space="preserve">
<metadata> Svg Vector Icons : http://www.onlinewebfonts.com/icon </metadata>
<g><g><g><path fill="currentColor" d="M100.9,10.6c-8.4,2.1-15.3,9.5-16.8,18.2C81.7,42.9,95,56.2,109.1,53.9c9.3-1.6,16.8-9.1,18.4-18.4C130.1,20.6,115.6,7.1,100.9,10.6z"/><path fill="currentColor" d="M20.5,25.4c-2.5,0.9-4.4,2.4-5.7,4.6c-2.6,4.4-2.4,9.4,0.3,12.5c1.1,1.2,12.5,8,42.3,25.1L98.2,91l0.2,73.5l0.2,73.5l1.1,2.2c2,4.1,6.5,6.2,12,5.7c4.2-0.4,7.1-2.2,8.9-5.6c1-1.8,1-2.1,1.2-34.9l0.1-33.1h47.4c53.7,0,50.2,0.2,54-3.6c2.4-2.3,3.2-4.6,3.2-8.3c0-4.6-2.6-7.7-7.9-9.3c-2.6-0.8-4.7-0.9-36.6-0.9c-22.9,0-34.6-0.2-36.3-0.5c-8.3-1.8-15.6-9-17.4-17.4c-0.3-1.6-0.5-10.3-0.5-24.8V85.2L162.4,65c19-11.1,35-20.7,35.8-21.3c1.8-1.5,3.5-5.3,3.5-7.8c0-6-5.9-11.5-11.8-11c-2.2,0.2-6.5,2.5-42.2,22.7c-21.9,12.4-40,22.6-40.2,22.7c-0.2,0.1-17.8-9.7-39.2-21.8C47,36.3,28.7,26,27.7,25.6C25.5,24.6,22.8,24.5,20.5,25.4z"/><path fill="currentColor" d="M216.5,65.3c0,10.2,0,11.1-0.8,11.1c-0.5,0-1.7,0.4-2.8,0.9c-1.5,0.7-2.2,1.3-2.9,2.9c-1.8,4.1-0.6,8.5,2.9,10.1c4.1,1.8,8.5,0.6,10.1-2.9c0.8-1.8,0.9-3.1,0.9-13.9V61.6h7.4h7.4V69c0,6.7-0.1,7.4-0.8,7.4c-0.5,0-1.7,0.4-2.8,0.9c-1.5,0.7-2.2,1.3-2.9,2.9c-1.8,4.1-0.6,8.5,2.9,10.1c4.1,1.8,8.5,0.6,10.1-2.9c0.8-1.8,0.9-3.1,0.9-17.6V54.2h-14.8h-14.8V65.3L216.5,65.3z"/><path fill="currentColor" d="M17.3,139.1c0,10.2,0,11.1-0.8,11.1c-0.5,0-1.7,0.4-2.8,0.9c-3.4,1.6-4.7,6-2.9,10.1c0.7,1.5,1.3,2.2,2.9,2.9c4.1,1.8,8.5,0.6,10.1-2.9c0.8-1.8,0.9-3.1,0.9-13.9v-11.9h7.4h7.4v7.4c0,6.7-0.1,7.4-0.8,7.4c-0.5,0-1.7,0.4-2.8,0.9c-3.4,1.6-4.7,6-2.9,10.1c2.3,5,10.7,5,12.9,0c0.8-1.8,0.9-3.1,0.9-17.6V128H32.1H17.3V139.1z"/></g></g></g>
</svg>