<svg  stroke="currentColor" viewBox="0 0 35 28" fill="currentColor" xmlns="http://www.w3.org/2000/svg">
<path fill-rule="evenodd" clip-rule="evenodd" d="M6.63159 12.1096C6.94281 9.65717 7.05655 6.78082 7.08806 5.06545C7.09431 4.72475 7.09687 4.38373 7.09687 4.08779C7.09687 3.51605 7.16892 2.95723 7.23341 2.45693C7.32042 1.78213 7.39236 1.22404 7.24875 0.979159C7.12492 0.768046 6.65452 0.827869 5.47512 1.35096C5.03457 1.54631 4.07445 2.08787 3.28257 2.53451C2.83569 2.78658 2.44011 3.00971 2.23055 3.11992C1.25529 3.63283 0.466689 4.29494 0.152079 5.21767C-0.168506 6.15777 -0.0122682 7.38832 0.909731 9.0373C1.29163 9.72031 1.74191 10.2967 2.1697 10.8443C2.8327 11.6931 3.44449 12.4762 3.71308 13.4943C3.85625 14.037 4.20378 14.9687 4.6345 15.6385C4.87849 16.0179 5.12578 16.2993 5.32315 16.3182C5.32818 16.318 5.33317 16.3179 5.3382 16.318L5.34244 16.318C5.79923 16.318 6.15658 15.129 6.43085 13.4912C6.42866 13.4515 6.43523 13.4118 6.45019 13.3742C6.51538 12.9743 6.57575 12.5493 6.63159 12.1096Z" fill="currentColor"/>
<path fill-rule="evenodd" clip-rule="evenodd" d="M34.6966 5.21768C34.382 4.29495 33.5935 3.63284 32.6182 3.11993C32.4086 3.00971 32.013 2.78659 31.5662 2.53452C30.7742 2.08788 29.8142 1.54631 29.3736 1.35094C28.1942 0.827876 27.7238 0.768052 27.6 0.979145C27.4564 1.22405 27.5283 1.78211 27.6153 2.45694C27.6798 2.95723 27.7519 3.51606 27.7519 4.0878C27.7519 4.38374 27.7544 4.72475 27.7607 5.06545C27.7922 6.78083 27.9059 9.65717 28.2171 12.1096C28.273 12.5493 28.3334 12.9743 28.3985 13.3742C28.4133 13.4114 28.4201 13.4511 28.4178 13.4912C28.6921 15.129 29.0495 16.318 29.5063 16.318L29.5105 16.3179C29.5156 16.3179 29.5205 16.318 29.5256 16.3181C29.7229 16.2993 29.9702 16.0179 30.2142 15.6385C30.6449 14.9687 30.9925 14.037 31.1356 13.4943C31.4042 12.4762 32.016 11.6931 32.679 10.8443C33.1068 10.2967 33.5571 9.7203 33.939 9.03729C34.861 7.38831 35.0172 6.15776 34.6966 5.21766V5.21768Z" fill="currentColor"/>
<path fill-rule="evenodd" clip-rule="evenodd" d="M26.6767 4.04096C24.8296 2.63577 21.1372 1.93495 17.4295 1.93495V1.93372C13.7163 1.93372 10.0174 2.63739 8.17203 4.041C8.15659 4.17532 8.1386 4.31485 8.12001 4.45903C8.05819 4.9387 7.98908 5.47456 7.98908 6.02151C7.98908 6.23258 7.98571 6.55948 7.97747 7.00895C7.9456 8.74245 7.83107 11.6462 7.51817 14.1117C7.46332 14.5439 7.40106 14.9637 7.33051 15.3631C7.60273 15.9219 7.88637 16.4438 8.1705 16.9667C9.36115 19.1577 10.5607 21.3653 10.5607 25.2624C10.5607 26.0321 11.1121 26.6926 11.892 27.0586C12.2296 27.2171 12.6083 27.3204 13.0029 27.3541C13.0178 27.3525 13.0328 27.3517 13.0479 27.3517C13.0814 27.3517 13.114 27.3557 13.1448 27.3632C13.1589 27.3638 13.173 27.3643 13.1871 27.3648C13.6492 27.3784 14.1283 27.2967 14.5856 27.0974C15.6659 26.6265 16.6342 25.4997 17.0188 23.4294C15.4373 23.1895 14.1591 21.6058 14.1591 20.5767C14.1591 18.9739 15.7913 19.3848 17.2984 19.3804C18.8886 19.3758 20.6897 18.9298 20.6897 20.5767C20.6897 21.6058 19.4114 23.1896 17.8299 23.4294C18.2144 25.4998 19.1828 26.6265 20.2632 27.0974C20.7205 27.2967 21.1995 27.3784 21.6616 27.3648C21.6757 27.3643 21.6898 27.3638 21.7039 27.3632C21.7355 27.3556 21.7681 27.3517 21.8009 27.3517C21.8161 27.3517 21.8312 27.3525 21.8459 27.3541C22.2404 27.3204 22.6192 27.2171 22.9568 27.0586C23.7366 26.6926 24.288 26.0321 24.288 25.2623C24.288 21.3653 25.4876 19.1578 26.6782 16.9667C26.9623 16.4439 27.246 15.9219 27.5182 15.3631C27.4477 14.9636 27.3854 14.5439 27.3306 14.1117C27.0177 11.6462 26.9031 8.74245 26.8712 7.00893C26.863 6.55948 26.8596 6.23256 26.8596 6.02151C26.8596 5.47456 26.7905 4.9387 26.7287 4.45903C26.7101 4.31483 26.6921 4.17526 26.6767 4.04096H26.6767ZM21.2631 11.2665C21.2631 10.5057 21.7461 9.29846 22.6211 9.29846C23.4961 9.29846 24.8844 9.91526 24.8844 10.6761C24.8844 11.437 23.4961 12.0538 22.6211 12.0538C21.7461 12.0538 21.2631 12.0274 21.2631 11.2665ZM12.2277 9.29846C13.1027 9.29846 13.5857 10.5056 13.5857 11.2665C13.5857 12.0274 13.1027 12.0538 12.2277 12.0538C11.3527 12.0538 9.96439 11.437 9.96439 10.6761C9.96439 9.91526 11.3527 9.29846 12.2277 9.29846Z" fill="currentColor"/>
<path fill-rule="evenodd" clip-rule="evenodd" d="M19.9432 2.96457C18.9092 2.51387 17.9678 1.58113 17.4244 0C16.8811 1.58113 15.9396 2.51387 14.9056 2.96457C14.434 3.17018 13.9442 3.27539 13.4636 3.29592C13.5999 3.6818 13.9762 4.03467 14.5137 4.31361C15.2519 4.69676 16.2805 4.93373 17.4244 4.93373C18.5683 4.93373 19.5969 4.69676 20.3352 4.31361C20.8727 4.03467 21.2489 3.68182 21.3852 3.29592C20.9046 3.27541 20.4149 3.17018 19.9432 2.96457Z" fill="currentColor"/>
</svg>
