<svg viewBox="0 0 31 21" stroke="currentColor" fill="none" xmlns="http://www.w3.org/2000/svg">
<path d="M28.3533 8.51429H20.9427C20.8495 6.47313 19.7341 4.54217 17.8367 3.13703C15.9392 1.7319 13.4114 0.964935 10.7973 1.00123C8.18318 1.03753 5.69184 1.87418 3.8595 3.33111C2.02715 4.78804 1.00031 6.74874 1 8.7912V19.6665C1.00006 19.7549 1.04506 19.8397 1.12511 19.9023C1.20516 19.9648 1.31371 20 1.42692 20H29.5731C29.6863 20 29.7949 19.9649 29.875 19.9023C29.955 19.8398 30 19.7549 30 19.6665V9.80069C29.9995 9.45962 29.8259 9.13263 29.5172 8.89146C29.2085 8.65029 28.7899 8.51465 28.3533 8.51429ZM26.9306 19.3332H4.07211V14.5907H5.83492V16.962C5.83492 17.0505 5.8799 17.1353 5.95996 17.1978C6.04002 17.2604 6.14861 17.2955 6.26184 17.2955H7.86437C7.9776 17.2955 8.08618 17.2604 8.16625 17.1978C8.24631 17.1353 8.29129 17.0505 8.29129 16.962V14.5907H10.0541V16.962C10.0541 17.0505 10.0991 17.1353 10.1791 17.1978C10.2592 17.2604 10.3678 17.2955 10.481 17.2955H12.0848C12.198 17.2955 12.3066 17.2604 12.3866 17.1978C12.4667 17.1353 12.5117 17.0505 12.5117 16.962V14.5907H14.2745V16.962C14.2745 17.0505 14.3195 17.1353 14.3995 17.1978C14.4796 17.2604 14.5882 17.2955 14.7014 17.2955H16.3027C16.416 17.2955 16.5245 17.2604 16.6046 17.1978C16.6847 17.1353 16.7296 17.0505 16.7296 16.962V14.5907H18.4925V16.962C18.4925 17.0505 18.5374 17.1353 18.6175 17.1978C18.6976 17.2604 18.8062 17.2955 18.9194 17.2955H20.5219C20.6351 17.2955 20.7437 17.2604 20.8238 17.1978C20.9039 17.1353 20.9488 17.0505 20.9488 16.962V14.5907H22.7116V16.962C22.7116 17.0505 22.7566 17.1353 22.8367 17.1978C22.9167 17.2604 23.0253 17.2955 23.1386 17.2955H24.7408C24.8541 17.2955 24.9627 17.2604 25.0427 17.1978C25.1228 17.1353 25.1678 17.0505 25.1678 16.962V14.5907H26.9306V19.3332ZM6.68924 16.6285V14.5907H7.4377V16.6285H6.68924ZM10.9082 16.6285V14.5907H11.6569V16.6285H10.9082ZM15.1286 16.6285V14.5907H15.8758V16.6285H15.1286ZM19.3475 16.6285V14.5907H20.0962V16.6285H19.3475ZM23.5679 16.6285V14.5907H24.3164V16.6285H23.5679ZM29.1486 19.3332H27.7869V14.2571C27.7869 14.1687 27.7419 14.0839 27.6618 14.0213C27.5817 13.9588 27.4732 13.9236 27.3599 13.9236H3.64763C3.5344 13.9236 3.42582 13.9588 3.34575 14.0213C3.26569 14.0839 3.22071 14.1687 3.22071 14.2571V19.3332H1.85457V8.7912C1.86704 6.90791 2.83345 5.10508 4.54254 3.77683C6.25162 2.44857 8.56436 1.70294 10.9751 1.70294C13.3859 1.70294 15.6987 2.44857 17.4078 3.77683C19.1168 5.10508 20.0833 6.90791 20.0957 8.7912V8.84837C20.0957 8.89217 20.1068 8.93554 20.1282 8.976C20.1497 9.01647 20.1811 9.05323 20.2208 9.0842C20.2604 9.11517 20.3075 9.13974 20.3593 9.1565C20.4111 9.17326 20.4666 9.18188 20.5226 9.18188H28.3536C28.5638 9.18209 28.7653 9.24741 28.9139 9.36352C29.0625 9.47963 29.1461 9.63705 29.1464 9.80126L29.1486 19.3332Z" fill="currentColor" stroke="currentColor" stroke-miterlimit="10"/>
</svg>
